# xmcd
#
# Track frame offsets: 
#        150
#        17036
#        34687
#        52182
#        70562
#        85139
#        102633
#        119095
#        135708
#        152541
#        167846
#        189183
#        207906
#
# Disc length: 2968 seconds
#
# Revision: 2
# Processed by: cddbd v1.5.2PL0 Copyright (c) Steve Scherf et al.
# Submitted via: ExactAudioCopyFreeDBPlugin 1.0
#
DISCID=b00b960d
DTITLE=童丽 - 印象
DYEAR=2010
DGENRE=Country
TTITLE0=印象
TTITLE1=天才白痴往日情
TTITLE2=榴莲飘香
TTITLE3=情义两心坚
TTITLE4=肯去承担爱
TTITLE5=印象
TTITLE6=相识也是缘分
TTITLE7=每一个晚上
TTITLE8=春宵良梦
TTITLE9=倩影
TTITLE10=痴心换情深
TTITLE11=留恋
TTITLE12=胭脂扣
EXTD=
EXTT0=
EXTT1=
EXTT2=
EXTT3=
EXTT4=
EXTT5=
EXTT6=
EXTT7=
EXTT8=
EXTT9=
EXTT10=
EXTT11=
EXTT12=
PLAYORDER=
